HIERARCHY
ROOT hip
{
	OFFSET 0.000000 0.000000 0.000000 
	CHANNELS 6 Xposition Yposition Zposition Xrotation Yrotation Zrotation
	JOINT abdomen
	{
		OFFSET 0.000000 3.402643 0.000000 
		CHANNELS 3 Xrotation  Yrotation Zrotation
		JOINT chest
		{
			OFFSET 0.000000 8.438565 -0.680529 
			CHANNELS 3 Xrotation  Yrotation Zrotation
			JOINT neck
			{
				OFFSET 0.000000 10.207942 -0.272212 
				CHANNELS 3 Xrotation  Yrotation Zrotation
				JOINT head
				{
					OFFSET 0.000000 3.130431 0.000000 
					CHANNELS 3 Xrotation  Yrotation Zrotation
					End Site
					{
						OFFSET 0.000000 3.130435 0.000000 
					}
				}
			}
			JOINT lCollar
			{
				OFFSET 3.470700 6.669187 -0.816635 
				CHANNELS 3 Xrotation  Yrotation Zrotation
				JOINT lShldr
				{
					OFFSET 3.198488 0.000000 0.000000 
					CHANNELS 3 Xrotation  Yrotation Zrotation
					JOINT lForeArm
					{
						OFFSET 10.139888 0.000000 0.000000 
						CHANNELS 3 Xrotation  Yrotation Zrotation
						JOINT lHand
						{
							OFFSET 8.370511 0.000000 0.000000 
							CHANNELS 3 Xrotation  Yrotation Zrotation
							End Site
							{
								OFFSET 4.083176 0.000000 0.000000 
							}
						}
					}
				}
			}
			JOINT rCollar
			{
				OFFSET -3.470700 6.669187 -0.816635 
				CHANNELS 3 Xrotation  Yrotation Zrotation
				JOINT rShldr
				{
					OFFSET -3.198488 0.000000 0.000000 
					CHANNELS 3 Xrotation  Yrotation Zrotation
					JOINT rForeArm
					{
						OFFSET -10.139888 0.000000 0.000000 
						CHANNELS 3 Xrotation  Yrotation Zrotation
						JOINT rHand
						{
							OFFSET -8.370511 0.000000 0.000000 
							CHANNELS 3 Xrotation  Yrotation Zrotation
							End Site
							{
								OFFSET -4.083176 0.000000 0.000000 
							}
						}
					}
				}
			}
		}
	}
	JOINT lThigh
	{
		OFFSET 5.308129 -1.633274 1.361059 
		CHANNELS 3 Xrotation  Yrotation Zrotation
		JOINT lShin
		{
			OFFSET -2.041588 -20.007561 0.000000 
			CHANNELS 3 Xrotation  Yrotation Zrotation
			JOINT lFoot
			{
				OFFSET 0.000000 -19.190928 -1.224953 
				CHANNELS 3 Xrotation  Yrotation Zrotation
				End Site
				{
					OFFSET 0.000000 -2.449906 4.627600 
				}
			}
		}
	}
	JOINT rThigh
	{
		OFFSET -5.308129 -1.633274 1.361059 
		CHANNELS 3 Xrotation  Yrotation Zrotation
		JOINT rShin
		{
			OFFSET 2.041588 -20.007561 0.000000 
			CHANNELS 3 Xrotation  Yrotation Zrotation
			JOINT rFoot
			{
				OFFSET 0.000000 -19.190928 -1.224953 
				CHANNELS 3 Xrotation  Yrotation Zrotation
				End Site
				{
					OFFSET 0.000000 -2.449906 4.627600 
				}
			}
		}
	}
}
MOTION
Frames: 15
Frame Time: 0.033333
-0.356545 50.922504 0.481030 1.627924 -4.507092 5.154901 0.000000 0.000000 0.000000 2.728886 5.397655 -4.528212 10.546515 -0.095551 -0.714205 -16.324903 -16.305851 -3.610018 19.108540 19.630304 15.221609 -12.051807 6.746912 -99.188354 23.414204 -31.064533 13.082288 50.952351 9.284396 -16.806271 17.464945 -23.071941 -15.964946 23.708803 71.569130 44.763382 -23.970705 15.346910 -8.739429 -6.970949 -8.758707 28.464512 4.485976 17.270638 0.511591 55.972439 -1.322403 4.994690 7.464153 -7.533531 -17.656567 -5.100054 -0.189731 -4.966557 13.137911 0.613227 1.852427 -5.163876 -3.941624 28.191921 
-0.661461 50.949669 0.491912 0.904328 -4.063090 4.323704 0.000000 0.000000 0.000000 3.993801 5.601920 -3.427406 9.706626 -0.137655 -1.408550 -16.341558 -16.706032 -3.617779 19.091503 20.108162 14.413577 -11.952588 6.911848 -98.725731 24.195322 -30.165947 13.597005 51.088188 9.996841 -16.583380 17.060913 -22.879892 -17.630995 21.377043 72.376968 46.578720 -24.038481 16.436419 -9.476678 -7.100892 -8.254706 28.065716 -4.073276 17.743660 2.245541 68.166534 -0.829915 9.155094 12.110138 -7.202526 -17.575365 -2.187384 -0.023287 -4.147226 12.836716 0.669784 2.107445 -6.053869 -3.709484 25.940159 
-0.886763 51.015144 0.379774 0.257732 -3.742933 3.915831 0.000000 0.000000 0.000000 5.431930 5.716972 -2.707590 8.876180 -0.199168 -2.300516 -16.020342 -16.678257 -3.503678 18.900169 21.188515 13.492395 -11.707958 6.916165 -98.623589 23.736649 -29.762123 13.245900 51.349365 10.835454 -15.501848 16.832539 -22.171471 -19.594925 18.201820 73.019089 48.484669 -22.897461 17.269548 -10.662060 -7.251853 -7.616817 27.389469 -13.809198 17.428907 2.891957 80.642372 -0.372042 12.588492 13.115717 -4.924382 -19.286955 0.541360 0.059999 -3.621398 12.188310 0.658777 2.292693 -7.005858 -3.636213 23.174982 
-1.044925 51.132442 0.189047 -0.241645 -3.762501 3.854774 0.000000 0.000000 0.000000 6.855352 5.745799 -2.378917 8.064104 -0.270482 -3.238944 -15.363543 -16.021082 -3.366779 18.561216 22.556953 12.803209 -10.914484 6.739201 -98.830742 22.291168 -29.986385 12.227210 51.614216 11.670001 -14.130508 16.736015 -21.272259 -21.686310 13.880342 73.626038 50.826992 -19.478100 17.066126 -13.040812 -7.501066 -6.272531 27.052536 -23.742104 16.458487 3.012913 91.715340 -0.164273 13.924621 11.906692 -1.593447 -20.976654 3.050109 0.090506 -3.317050 11.244109 0.571868 2.263259 -7.661780 -3.374817 20.957615 
-1.157226 51.295761 -0.042832 -0.506181 -4.219841 4.006114 0.000000 0.000000 0.000000 8.142995 5.702468 -2.371929 7.191918 -0.336726 -4.166043 -14.644785 -14.993602 -2.999325 18.261450 23.918022 12.056307 -9.674029 6.655094 -98.692856 20.813330 -30.737579 10.786909 51.916790 12.624616 -13.280577 16.743425 -20.355259 -23.781424 8.644095 74.142052 53.660839 -15.535504 16.205048 -15.785363 -7.762849 -4.635654 27.108276 -33.487793 15.105670 3.275774 100.284523 -0.256188 13.357581 9.902230 1.151180 -22.008554 5.267954 0.084899 -3.163464 10.106469 0.436766 2.116372 -8.060900 -2.927725 19.900507 
-1.239174 51.486546 -0.315635 -0.256515 -5.281190 4.143826 0.000000 0.000000 0.000000 8.895734 5.668562 -2.386654 6.454652 -0.406087 -5.173437 -14.118916 -13.665582 -2.233470 18.122131 25.290756 10.929912 -8.161178 6.800319 -97.958595 20.080854 -31.509441 9.487998 52.265240 13.646483 -13.258137 16.954462 -19.171980 -25.622934 2.502052 74.584991 57.085468 -14.360350 15.716787 -17.053452 -7.926555 -3.716018 26.967949 -43.393955 13.586376 4.439151 106.010391 -0.604625 11.453016 7.859791 2.887634 -22.402012 6.698118 0.141199 -2.896333 9.203577 0.334775 1.931193 -8.418790 -2.633203 19.609297 
-1.306803 51.662228 -0.601553 0.321953 -6.937946 4.040387 0.000000 0.000000 0.000000 9.199734 5.694648 -2.200483 6.028567 -0.480960 -6.245894 -13.980097 -12.183144 -1.293989 18.104156 26.606342 9.612004 -6.624488 7.127494 -96.936478 20.396019 -31.822439 8.988948 52.534809 14.300715 -14.396477 17.572023 -17.476992 -26.041479 -4.734216 74.933388 61.416050 -15.989126 15.587744 -16.644257 -8.088035 -3.488971 26.423656 -52.557068 12.180458 6.670927 108.761887 -1.052580 9.304560 8.021484 3.754884 -23.184755 7.378543 0.305473 -2.321433 9.001138 0.252574 1.725951 -8.837859 -2.144286 20.023142 
-1.359245 51.823200 -0.815297 0.166395 -8.715180 3.528850 0.000000 0.000000 0.000000 9.993815 5.745294 -1.837568 6.163040 -0.532796 -7.023408 -14.810857 -11.155519 -0.777234 18.139351 27.432550 8.747876 -4.900094 7.314896 -96.307617 19.668589 -31.645830 8.379913 52.933914 15.241475 -15.973333 18.218164 -16.054031 -26.414953 -10.940860 75.005898 64.956268 -19.786232 15.879557 -15.007013 -8.047136 -4.351239 25.929895 -59.452099 11.175662 9.149158 109.093971 -1.317911 8.035867 7.887379 4.577661 -23.861609 8.952203 0.496733 -1.550769 8.889516 0.247465 1.579005 -9.494468 -1.494105 19.712622 
-1.381797 51.911049 -0.922758 -0.412364 -9.889354 2.961759 0.000000 0.000000 0.000000 10.811522 5.776934 -1.524085 6.840236 -0.573401 -7.597498 -15.790289 -10.644334 -0.153809 18.179131 27.671495 8.433536 -3.699612 7.264743 -96.245033 21.565796 -31.020712 10.471596 52.714031 14.576003 -17.642750 18.616892 -15.298538 -26.625126 -14.108845 74.994148 66.776772 -24.570463 16.697701 -12.930145 -7.811721 -5.930176 25.495581 -61.298550 11.137826 10.629914 105.078735 -1.460390 7.645917 10.260493 4.799010 -26.575962 10.835355 0.648298 -0.926244 9.212337 0.217914 1.305345 -10.339196 -1.010209 20.192013 
-1.362819 51.932838 -1.001217 -0.568655 -10.584364 2.617244 0.000000 0.000000 0.000000 10.838071 5.827686 -1.302128 7.794052 -0.619351 -8.089911 -16.418667 -10.312170 0.593190 18.273851 27.674292 8.188280 -2.937470 7.175759 -96.308495 22.498602 -30.668505 11.824051 52.596844 14.251797 -18.645277 18.759111 -15.043167 -26.698694 -15.010798 74.992897 67.330246 -27.254679 17.340937 -11.944083 -7.583486 -7.028792 25.413074 -60.186432 11.639150 11.267726 97.728111 -1.666618 7.003246 10.148736 4.650890 -27.987711 12.180953 0.754446 -0.644462 9.780227 0.175276 1.122965 -11.108006 -0.897648 20.637009 
-1.295621 51.888561 -1.049810 -0.389226 -11.044192 2.456798 0.000000 0.000000 0.000000 10.200892 5.900964 -1.082543 8.850662 -0.646956 -8.492272 -16.556965 -10.003015 1.308097 18.356983 27.755541 7.899192 -2.331174 7.175902 -96.256538 22.494560 -31.010609 11.990349 52.504684 13.944745 -18.953465 18.753368 -15.114654 -26.674713 -13.912091 74.946999 66.430283 -28.059984 17.761330 -11.638728 -7.362455 -7.833575 25.583790 -56.746651 12.558331 11.318282 88.335098 -1.921726 5.804008 6.792436 5.217010 -28.483727 13.278419 0.723184 -0.683621 10.319898 0.220175 1.112665 -12.012558 -0.934910 20.620480 
-1.194000 51.787449 -1.044056 -0.079706 -11.610990 2.359599 0.000000 0.000000 0.000000 9.213774 6.006614 -0.785250 9.781334 -0.677213 -8.931095 -16.526972 -9.571239 1.949611 18.417799 28.150906 7.419497 -1.738345 7.297617 -95.981239 21.484842 -32.071136 10.861091 52.497051 13.769518 -18.396891 18.774420 -15.167842 -26.654457 -11.634089 74.874672 64.770416 -27.352602 18.060162 -12.094763 -7.170433 -8.304847 25.895496 -51.135750 13.824286 10.965755 77.641083 -2.121683 4.369690 2.900123 6.919879 -28.885839 14.426550 0.635765 -0.927404 10.684832 0.261620 1.171797 -13.310887 -0.743089 20.276800 
-1.078252 51.659069 -0.969723 0.149901 -12.422469 2.162635 0.000000 0.000000 0.000000 8.210259 6.142671 -0.340195 10.367332 -0.709113 -9.353909 -16.248249 -8.966996 2.415071 18.560278 28.486795 6.766785 -1.090816 7.485999 -95.592239 19.642973 -33.474773 9.104999 52.498875 13.569079 -17.087200 18.870718 -15.159513 -26.648211 -8.751348 74.768036 62.758770 -25.530504 18.191435 -13.248801 -7.079147 -8.282876 26.432589 -44.236156 15.214660 10.364464 66.509735 -2.048369 3.424330 0.500484 7.785471 -29.334522 15.764823 0.547630 -1.210420 11.018034 0.303431 1.249990 -14.560959 -0.399607 20.283443 
-0.960614 51.518768 -0.842669 0.315849 -13.411351 1.705120 0.000000 0.000000 0.000000 7.261677 6.317728 0.302218 10.664491 -0.732229 -9.555277 -15.772712 -8.311882 2.528010 18.749283 28.629425 6.179050 -0.462681 7.647468 -95.278603 17.384899 -34.920933 7.268767 52.516640 13.404516 -15.363839 19.051342 -15.058428 -26.666636 -5.147684 74.581367 60.191399 -23.651621 18.190802 -14.551262 -7.072999 -8.016707 27.035200 -36.852222 16.454149 9.666654 55.418716 -1.720940 3.074680 -0.767021 6.919585 -28.232132 17.014582 0.483117 -1.327198 11.730526 0.388153 1.256781 -15.581504 0.112707 21.192532 
-0.840062 51.382572 -0.655260 0.254511 -14.469090 1.038888 0.000000 0.000000 0.000000 6.537570 6.492642 1.005633 10.842924 -0.727591 -9.516368 -15.500522 -7.672099 2.503241 18.857658 28.710260 5.854443 0.012558 7.731678 -95.120453 14.867976 -36.078442 5.217630 52.594395 13.458162 -13.447096 19.246241 -14.951825 -26.686834 -1.429814 74.314896 57.619682 -22.063492 17.992775 -15.652930 -7.121231 -7.772153 27.406525 -29.216948 17.538666 9.036227 44.881096 -1.295477 2.887842 -2.014888 4.821863 -26.150276 18.172077 0.498249 -1.318177 13.227552 0.435468 1.083372 -16.420216 0.633021 22.807249 
